<svg xmlns="http://www.w3.org/2000/svg" viewBox="0 0 530.50 277.87" width="530.50" height="277.87" fill="none" xmlns:c2pa="http://c2pa.org/manifest"><metadata><c2pa:manifest>AAAWgmp1bWIAAAAeanVtZGMycGEAEQAQgAAAqgA4m3EDYzJwYQAAABZcanVtYgAAAEdqdW1kYzJtYQARABCAAACqADibcQN1cm46YzJwYTo0YWU4NmZmYS0xOWMwLTRlYTMtYjRjOS1iMmVhZDg3YmFhMzgAAAADl2p1bWIAAAApanVtZGMyYXMAEQAQgAAAqgA4m3EDYzJwYS5hc3NlcnRpb25zAAAAALxqdW1iAAAARGp1bWRjYm9yABEAEIAAAKoAOJtxE2MycGEuaW5ncmVkaWVudC52MwAAAAAYYzJzaCGRjnv4z/r5K9x6LsR2VkIAAABwY2JvcqNpZGM6Zm9ybWF0bWltYWdlL3N2Zyt4bWxqaW5zdGFuY2VJRHgseG1wOmlpZDpiNjExMDc4Zi0wMDRkLTRmZWQtODI2Yy1lM2RlMDA3ZWY4ZjJscmVsYXRpb25zaGlwaHBhcmVudE9mAAAB4mp1bWIAAABBanVtZGNib3IAEQAQgAAAqgA4m3ETYzJwYS5hY3Rpb25zLnYyAAAAABhjMnNo1HNourqDiWoAKAJRruLkCgAAAZljYm9yomdhY3Rpb25zgqJmYWN0aW9ua2MycGEub3BlbmVkanBhcmFtZXRlcnOha2luZ3JlZGllbnRzgaJjdXJseC1zZWxmI2p1bWJmPWMycGEuYXNzZXJ0aW9ucy9jMnBhLmluZ3JlZGllbnQudjNkaGFzaFggb03ZI0LFqV+t6gl0veX27H7HkcH+6Lu/bsF7RghDJ6GkZmFjdGlvbngdY29tLmFudGhyb3BpYy5jbGF1ZGUucHJvdmlkZWRqcGFyYW1ldGVyc6F4H2NvbS5hbnRocm9waWMub3JpZ2luLWNvbmZpZGVuY2VndW5rbm93bmtkZXNjcmlwdGlvbnhmQ2xhdWRlIHByb3ZpZGVkIHRoaXMgZmlsZSBhdCB0aGUgcmVxdWVzdCBvZiBhIHVzZXIgYW5kIG1heSBoYXZlIGNyZWF0ZWQgb3IgbW9kaWZpZWQgdGhlIGZpbGUgY29udGVudHMubXNvZnR3YXJlQWdlbnShZG5hbWVmQ2xhdWRlcmFsbEFjdGlvbnNJbmNsdWRlZPUAAADIanVtYgAAAEBqdW1kY2JvcgARABCAAACqADibcRNjMnBhLmhhc2guZGF0YQAAAAAYYzJzaO6RtTUEzYq3IIoiFMiyT/IAAACAY2JvcqVjYWxnZnNoYTI1NmNwYWRNAAAAAAAAAAAAAAAAAGRoYXNoWCA1/SFHdaw6vVJJ8DYEA4NeYUMAqdNvQDrOABrZ0cmoC2RuYW1lbmp1bWJmIG1hbmlmZXN0amV4Y2x1c2lvbnOBomVzdGFydBiuZmxlbmd0aBkeBAAAAj5qdW1iAAAAJ2p1bWRjMmNsABEAEIAAAKoAOJtxA2MycGEuY2xhaW0udjIAAAACD2Nib3KlY2FsZ2ZzaGEyNTZpc2lnbmF0dXJleE1zZWxmI2p1bWJmPS9jMnBhL3VybjpjMnBhOjRhZTg2ZmZhLTE5YzAtNGVhMy1iNGM5LWIyZWFkODdiYWEzOC9jMnBhLnNpZ25hdHVyZWppbnN0YW5jZUlEeCx4bXA6aWlkOjY3M2VhMWExLTI4MGMtNDdiNy1hN2QyLWE4NmFjYjE5ODQ4NHJjcmVhdGVkX2Fzc2VydGlvbnODomN1cmx4LXNlbGYjanVtYmY9YzJwYS5hc3NlcnRpb25zL2MycGEuaW5ncmVkaWVudC52M2RoYXNoWCBvTdkjQsWpX63qCXS95fbsfseRwf7ou79uwXtGCEMnoaJjdXJseCpzZWxmI2p1bWJmPWMycGEuYXNzZXJ0aW9ucy9jMnBhLmFjdGlvbnMudjJkaGFzaFggmfSLK4uE1W8+wezPZBkIdpXpjQ8FJKvBkC2QOIAr0+GiY3VybHgpc2VsZiNqdW1iZj1jMnBhLmFzc2VydGlvbnMvYzJwYS5oYXNoLmRhdGFkaGFzaFggY5Kh1mMBlLbRkq+4cuNwSGxEF2lx9+0HngoooGxpWO90Y2xhaW1fZ2VuZXJhdG9yX2luZm+jZG5hbWVvQW50aHJvcGljIEZpbGVzZ3ZlcnNpb25lMS4wLjBrc3BlY1ZlcnNpb25lMi40LjAAABA4anVtYgAAAChqdW1kYzJjcwARABCAAACqADibcQNjMnBhLnNpZ25hdHVyZQAAABAIY2JvctKEWQISogEmGCFZAgowggIGMIIBjaADAgECAhRA5aAK7sI50L64g/oGQgU9Z1UTADAKBggqhkjOPQQDAzBJMRcwFQYDVQQKEw5BbnRocm9waWMsIFBCQzEuMCwGA1UEAxMlQW50aHJvcGljIENvbnRlbnQgQ3JlZGVudGlhbHMgUm9vdCBDQTAeFw0yNjA4MDcxODQzNTZaFw0yODA4MDYxOTQzNTZaMEQxFzAVBgNVBAoTDkFudGhyb3BpYywgUEJDMSkwJwYDVQQDEyBBbnRocm9waWMgQ2xhdWRlIENvbnRlbnQgU2lnbmluZzBZMBMGByqGSM49AgEGCCqGSM49AwEHA0IABJh6CmvLUBgFFNU0vUKlOVtE6djd17L5SuwX0LemFisBM3dkd/3cyjxFA3Qo5S46fX0/ihY0VZ7mfb9KF703t5OjWDBWMA4GA1UdDwEB/wQEAwIHgDAVBgNVHSUEDjAMBgorBgEEAYPoXgIBMAwGA1UdEwEB/wQCMAAwHwYDVR0jBBgwFoAUzlHiBIFOZFsj+OPEz5o+nMHXXMIwCgYIKoZIzj0EAwMDZwAwZAIwMXMdFJ4BetLLVY7ORuE9noqbbAZOZn/aArXyTwFAZfKrPzxF2vPoJNf1+UCdg1XGAjBwX1zd9WGqYkqmL5SFqw1QySjr1zJfpJM9+1rdDwSPLMOPOjKuiXjoU/pUUeG9RwmhY3BhZFkNngAAAAAAAAAAAAAAAAAAAAAAAAAAAAAAAAAAAAAAAAAAAAAAAAAAAAAAAAAAAAAAAAAAAAAAAAAAAAAAAAAAAAAAAAAAAAAAAAAAAAAAAAAAAAAAAAAAAAAAAAAAAAAAAAAAAAAAAAAAAAAAAAAAAAAAAAAAAAAAAAAAAAAAAAAAAAAAAAAAAAAAAAAAAAAAAAAAAAAAAAAAAAAAAAAAAAAAAAAAAAAAAAAAAAAAAAAAAAAAAAAAAAAAAAAAAAAAAAAAAAAAAAAAAAAAAAAAAAAAAAAAAAAAAAAAAAAAAAAAAAAAAAAAAAAAAAAAAAAAAAAAAAAAAAAAAAAAAAAAAAAAAAAAAAAAAAAAAAAAAAAAAAAAAAAAAAAAAAAAAAAAAAAAAAAAAAAAAAAAAAAAAAAAAAAAAAAAAAAAAAAAAAAAAAAAAAAAAAAAAAAAAAAAAAAAAAAAAAAAAAAAAAAAAAAAAAAAAAAAAAAAAAAAAAAAAAAAAAAAAAAAAAAAAAAAAAAAAAAAAAAAAAAAAAAAAAAAAAAAAAAAAAAAAAAAAAAAAAAAAAAAAAAAAAAAAAAAAAAAAAAAAAAAAAAAAAAAAAAAAAAAAAAAAAAAAAAAAAAAAAAAAAAAAAAAAAAAAAAAAAAAAAAAAAAAAAAAAAAAAAAAAAAAAAAAAAAAAAAAAAAAAAAAAAAAAAAAAAAAAAAAAAAAAAAAAAAAAAAAAAAAAAAAAAAAAAAAAAAAAAAAAAAAAAAAAAAAAAAAAAAAAAAAAAAAAAAAAAAAAAAAAAAAAAAAAAAAAAAAAAAAAAAAAAAAAAAAAAAAAAAAAAAAAAAAAAAAAAAAAAAAAAAAAAAAAAAAAAAAAAAAAAAAAAAAAAAAAAAAAAAAAAAAAAAAAAAAAAAAAAAAAAAAAAAAAAAAAAAAAAAAAAAAAAAAAAAAAAAAAAAAAAAAAAAAAAAAAAAAAAAAAAAAAAAAAAAAAAAAAAAAAAAAAAAAAAAAAAAAAAAAAAAAAAAAAAAAAAAAAAAAAAAAAAAAAAAAAAAAAAAAAAAAAAAAAAAAAAAAAAAAAAAAAAAAAAAAAAAAAAAAAAAAAAAAAAAAAAAAAAAAAAAAAAAAAAAAAAAAAAAAAAAAAAAAAAAAAAAAAAAAAAAAAAAAAAAAAAAAAAAAAAAAAAAAAAAAAAAAAAAAAAAAAAAAAAAAAAAAAAAAAAAAAAAAAAAAAAAAAAAAAAAAAAAAAAAAAAAAAAAAAAAAAAAAAAAAAAAAAAAAAAAAAAAAAAAAAAAAAAAAAAAAAAAAAAAAAAAAAAAAAAAAAAAAAAAAAAAAAAAAAAAAAAAAAAAAAAAAAAAAAAAAAAAAAAAAAAAAAAAAAAAAAAAAAAAAAAAAAAAAAAAAAAAAAAAAAAAAAAAAAAAAAAAAAAAAAAAAAAAAAAAAAAAAAAAAAAAAAAAAAAAAAAAAAAAAAAAAAAAAAAAAAAAAAAAAAAAAAAAAAAAAAAAAAAAAAAAAAAAAAAAAAAAAAAAAAAAAAAAAAAAAAAAAAAAAAAAAAAAAAAAAAAAAAAAAAAAAAAAAAAAAAAAAAAAAAAAAAAAAAAAAAAAAAAAAAAAAAAAAAAAAAAAAAAAAAAAAAAAAAAAAAAAAAAAAAAAAAAAAAAAAAAAAAAAAAAAAAAAAAAAAAAAAAAAAAAAAAAAAAAAAAAAAAAAAAAAAAAAAAAAAAAAAAAAAAAAAAAAAAAAAAAAAAAAAAAAAAAAAAAAAAAAAAAAAAAAAAAAAAAAAAAAAAAAAAAAAAAAAAAAAAAAAAAAAAAAAAAAAAAAAAAAAAAAAAAAAAAAAAAAAAAAAAAAAAAAAAAAAAAAAAAAAAAAAAAAAAAAAAAAAAAAAAAAAAAAAAAAAAAAAAAAAAAAAAAAAAAAAAAAAAAAAAAAAAAAAAAAAAAAAAAAAAAAAAAAAAAAAAAAAAAAAAAAAAAAAAAAAAAAAAAAAAAAAAAAAAAAAAAAAAAAAAAAAAAAAAAAAAAAAAAAAAAAAAAAAAAAAAAAAAAAAAAAAAAAAAAAAAAAAAAAAAAAAAAAAAAAAAAAAAAAAAAAAAAAAAAAAAAAAAAAAAAAAAAAAAAAAAAAAAAAAAAAAAAAAAAAAAAAAAAAAAAAAAAAAAAAAAAAAAAAAAAAAAAAAAAAAAAAAAAAAAAAAAAAAAAAAAAAAAAAAAAAAAAAAAAAAAAAAAAAAAAAAAAAAAAAAAAAAAAAAAAAAAAAAAAAAAAAAAAAAAAAAAAAAAAAAAAAAAAAAAAAAAAAAAAAAAAAAAAAAAAAAAAAAAAAAAAAAAAAAAAAAAAAAAAAAAAAAAAAAAAAAAAAAAAAAAAAAAAAAAAAAAAAAAAAAAAAAAAAAAAAAAAAAAAAAAAAAAAAAAAAAAAAAAAAAAAAAAAAAAAAAAAAAAAAAAAAAAAAAAAAAAAAAAAAAAAAAAAAAAAAAAAAAAAAAAAAAAAAAAAAAAAAAAAAAAAAAAAAAAAAAAAAAAAAAAAAAAAAAAAAAAAAAAAAAAAAAAAAAAAAAAAAAAAAAAAAAAAAAAAAAAAAAAAAAAAAAAAAAAAAAAAAAAAAAAAAAAAAAAAAAAAAAAAAAAAAAAAAAAAAAAAAAAAAAAAAAAAAAAAAAAAAAAAAAAAAAAAAAAAAAAAAAAAAAAAAAAAAAAAAAAAAAAAAAAAAAAAAAAAAAAAAAAAAAAAAAAAAAAAAAAAAAAAAAAAAAAAAAAAAAAAAAAAAAAAAAAAAAAAAAAAAAAAAAAAAAAAAAAAAAAAAAAAAAAAAAAAAAAAAAAAAAAAAAAAAAAAAAAAAAAAAAAAAAAAAAAAAAAAAAAAAAAAAAAAAAAAAAAAAAAAAAAAAAAAAAAAAAAAAAAAAAAAAAAAAAAAAAAAAAAAAAAAAAAAAAAAAAAAAAAAAAAAAAAAAAAAAAAAAAAAAAAAAAAAAAAAAAAAAAAAAAAAAAAAAAAAAAAAAAAAAAAAAAAAAAAAAAAAAAAAAAAAAAAAAAAAAAAAAAAAAAAAAAAAAAAAAAAAAAAAAAAAAAAAAAAAAAAAAAAAAAAAAAAAAAAAAAAAAAAAAAAAAAAAAAAAAAAAAAAAAAAAAAAAAAAAAAAAAAAAAAAAAAAAAAAAAAAAAAAAAAAAAAAAAAAAAAAAAAAAAAAAAAAAAAAAAAAAAAAAAAAAAAAAAAAAAAAAAAAAAAAAAAAAAAAAAAAAAAAAAAAAAAAAAAAAAAAAAAAAAAAAAAAAAAAAAAAAAAAAAAAAAAAAAAAAAAAAAAAAAAAAAAAAAAAAAAAAAAAAAAAAAAAAAAAAAAAAAAAAAAAAAAAAAAAAAAAAAAAAAAAAAAAAAAAAAAAAAAAAAAAAAAAAAAAAAAAAAAAAAAAAAAAAAAAAAAAAAAAAAAAAAAAAAAAAAAAAAAAAAAAAAAAAAAAAAAAAAAAAAAAAAAAAAAAAAAAAAAAAAAAAAAAAAAAAAAAAAAAAAAAAAAAAAAAAAAAAAAAAAAAAAAAAAAAAAAAAAAAAAAAAAAAAAAAAAAAAAAAAAAAAAAAAAAAAAAAAAAAAAAAAAAAAAAAAAAAAAAAAAAAAAAAAAAAAAAAAAAAAAAAAAAAAAAAAAAAAAAAAAAAAAAAAAAAAAAAAAAAAAAAAAAAAAAAAAAAAAAAAAAAAAAAAAAAAAAAAAAAAAAAAAAAAAAAAAAAAAAAAAAAAAAAAAAAAAAAAAAAAAAAAAAAAAAAAAAAAAAAAAAAAAAAAAAAAAAAAAAAAAAAAAAAAAAAAAAAAAAAAAAAAAAAAAAAAAAAAAAAAAAAAAAAAAAAAAAAAAAAAAAAAAAAAAAAAAAAAAAAAAAAAAAAAAAAAAAAAAAAAAAAAAAAAAAAAAAAAAAAAAAAAAAAAAAAAAAAAAAAAAAAAAAAAAAAAAAAAAAAAAAAAAAAAAAAAAAAAAAAAAAAAAAAAAAAAAAAAAAAAAAAAAAAAAAAAAAAAAAAAAAAAAAAAAAAAAAAAAAAAAAAAAAAAAAAAAAAAAAAAAAAAAAAAAAAAAAAAAAAAAAAAAAAAAAAAAAAAAAAAAAAAAAAAAAAAAAAAAAAAAAAAAAAAAAAAAAAAAAAAAAAAAAAAAAAAAAAAAAAAAAAAAAAAAAAAAAAAAAAAAAAAAAAAAAAAAAAAAAAAAAAAAAAAAAAAAAAAAAAAAAAAAAAAAAAAAAAAAAAAAAAAAAAAAAAAAAAAAAAAAAAAAAAAAAAAAAAAAAAAAAAAAAAAAAAAAAAAAAAAAAAAAAAAAAAAAAAAAAAAAAAAAAAAAAAAAAAAAAAAAAAAAAAAAAAAAAAAAAAAAAAAAAAAAAAAAAAAAAAAAAAAAAAAAAAAAAAAAAAAAAAAAAAAAAAAAAAAAAAAAAAAAAAAAAAAAAAAAAAAAAAAAAAAAAAAAAAAAAAAAAAAAAAAAAAAAAAAAAAAAAAAAAAAAAAAAAAAAAAAAAAAAAAAAAAAAAAAAAAAAAAAAAAAAAAAAAAAAAAAAAAAAAAAAAAAAAAAAAAAAAAAAAAAAAAAAAAAAAAAAAAAAAAAAAAAAAAAAAAAAAAAAAAAAAAAAAAAAAAAAAAAAAAAAAAAAAAAAAAAAAAAAAAAAAAAAAAAAAAAAAAAAAAAAAAAAAAAAAAAAAAAAAAAAAAPZYQAOxmuJSdt3/WRTbIrsSpmEOksUfghNa1HRSiuEu2Fban0o/HE++qZNJIw7jc3P469ZEg2ORY1fAE46cSHfFN4k=</c2pa:manifest></metadata><title>RisingAmp</title><g transform="translate(151.002 -46.504) scale(0.44716)"><path fill="#14161C" fill-rule="nonzero" d="M 243.68 110.54 A 15 15 0 0 1 268.32 110.54 L 470.25 401.35 L 445.75 418.65 L 263.3 165.34 A 9 9 0 0 0 248.7 165.34 L 66.25 418.65 L 41.75 401.35 Z M 161 357 A 109.55 109.55 0 0 1 351 357 A 186.56 186.56 0 0 0 161 357 Z M 243 305 L 269 305 L 269 445 L 243 445 Z"/></g><path fill="#14161C" d="M44.400000000000006 256.166 27.8 227.666H16.8V256.166H7.7V186.466H30.200000000000003Q38.1 186.466 43.55 189.166Q49.0 191.86599999999999 51.7 196.466Q54.400000000000006 201.066 54.400000000000006 206.966Q54.400000000000006 214.166 50.25 219.666Q46.1 225.166 37.800000000000004 226.966L55.300000000000004 256.166ZM16.8 220.36599999999999H30.200000000000003Q37.6 220.36599999999999 41.3 216.716Q45.0 213.066 45.0 206.966Q45.0 200.766 41.35 197.36599999999999Q37.7 193.966 30.200000000000003 193.966H16.8Z M65.8 186.266Q65.8 183.666 67.6 181.86599999999999Q69.4 180.06599999999997 72.0 180.06599999999997Q74.5 180.06599999999997 76.25 181.86599999999999Q78.0 183.666 78.0 186.266Q78.0 188.86599999999999 76.25 190.666Q74.5 192.466 72.0 192.466Q69.4 192.466 67.6 190.666Q65.8 188.86599999999999 65.8 186.266ZM76.4 201.36599999999999V256.166H67.3V201.36599999999999Z M87.7 240.066H97.1Q97.5 244.166 100.95 246.766Q104.4 249.36599999999999 110.0 249.36599999999999Q115.2 249.36599999999999 118.2 247.06599999999997Q121.2 244.766 121.2 241.266Q121.2 237.666 118.0 235.916Q114.8 234.166 108.1 232.466Q102.0 230.86599999999999 98.15 229.216Q94.3 227.566 91.55 224.316Q88.8 221.066 88.8 215.766Q88.8 211.566 91.3 208.066Q93.8 204.566 98.4 202.51600000000002Q103.0 200.466 108.9 200.466Q118.0 200.466 123.6 205.066Q129.2 209.666 129.6 217.666H120.5Q120.2 213.36599999999999 117.05000000000001 210.766Q113.9 208.166 108.6 208.166Q103.7 208.166 100.80000000000001 210.266Q97.9 212.36599999999999 97.9 215.766Q97.9 218.466 99.65 220.216Q101.4 221.966 104.05000000000001 223.01600000000002Q106.7 224.066 111.4 225.36599999999999Q117.30000000000001 226.966 121.0 228.51600000000002Q124.7 230.066 127.35 233.166Q130.0 236.266 130.1 241.266Q130.1 245.766 127.6 249.36599999999999Q125.1 252.966 120.55 255.016Q116.0 257.066 110.1 257.066Q103.8 257.066 98.8 254.916Q93.8 252.766 90.9 248.916Q88.0 245.066 87.7 240.066Z M140.2 186.266Q140.2 183.666 142.0 181.86599999999999Q143.8 180.06599999999997 146.4 180.06599999999997Q148.9 180.06599999999997 150.65 181.86599999999999Q152.4 183.666 152.4 186.266Q152.4 188.86599999999999 150.65 190.666Q148.9 192.466 146.4 192.466Q143.8 192.466 142.0 190.666Q140.2 188.86599999999999 140.2 186.266ZM150.8 201.36599999999999V256.166H141.7V201.36599999999999Z M214.20000000000002 223.86599999999999V256.166H205.20000000000002V225.166Q205.20000000000002 216.966 201.10000000000002 212.61599999999999Q197.0 208.266 189.9 208.266Q182.70000000000002 208.266 178.45000000000002 212.766Q174.20000000000002 217.266 174.20000000000002 225.86599999999999V256.166H165.1V201.36599999999999H174.20000000000002V209.166Q176.9 204.966 181.55 202.666Q186.20000000000002 200.36599999999999 191.8 200.36599999999999Q201.8 200.36599999999999 208.0 206.416Q214.20000000000002 212.466 214.20000000000002 223.86599999999999Z M270.90000000000003 211.36599999999999V201.36599999999999H280.1V257.366Q280.1 264.866 276.90000000000003 270.716Q273.70000000000005 276.566 267.75 279.866Q261.8 283.166 253.90000000000003 283.166Q243.10000000000002 283.166 235.90000000000003 278.06600000000003Q228.70000000000002 272.966 227.4 264.166H236.4Q237.9 269.166 242.60000000000002 272.216Q247.3 275.266 253.90000000000003 275.266Q261.40000000000003 275.266 266.15000000000003 270.56600000000003Q270.90000000000003 265.866 270.90000000000003 257.366V245.86599999999999Q268.20000000000005 250.666 262.90000000000003 253.86599999999999Q257.6 257.066 250.50000000000003 257.066Q243.20000000000002 257.066 237.25 253.46599999999998Q231.3 249.86599999999999 227.90000000000003 243.36599999999999Q224.50000000000003 236.86599999999999 224.50000000000003 228.566Q224.50000000000003 220.166 227.90000000000003 213.816Q231.3 207.466 237.25 203.966Q243.20000000000002 200.466 250.50000000000003 200.466Q257.6 200.466 262.95000000000005 203.566Q268.3 206.666 270.90000000000003 211.36599999999999ZM252.3 208.36599999999999Q247.20000000000002 208.36599999999999 243.0 210.766Q238.8 213.166 236.3 217.766Q233.8 222.36599999999999 233.8 228.566Q233.8 234.86599999999999 236.3 239.516Q238.8 244.166 243.0 246.61599999999999Q247.20000000000002 249.066 252.3 249.066Q257.40000000000003 249.066 261.65000000000003 246.61599999999999Q265.90000000000003 244.166 268.40000000000003 239.516Q270.90000000000003 234.86599999999999 270.90000000000003 228.666Q270.90000000000003 222.466 268.40000000000003 217.86599999999999Q265.90000000000003 213.266 261.65000000000003 210.81599999999997Q257.40000000000003 208.36599999999999 252.3 208.36599999999999Z M336.5 243.766H310.3L306.1 256.166H288.20000000000005L313.6 185.966H333.40000000000003L358.8 256.166H340.70000000000005ZM332.1 230.566 323.40000000000003 204.86599999999999 314.8 230.566Z M459.20000000000005 223.566V256.166H442.20000000000005V225.86599999999999Q442.20000000000005 220.466 439.35 217.51600000000002Q436.5 214.566 431.5 214.566Q426.5 214.566 423.65 217.51600000000002Q420.8 220.466 420.8 225.86599999999999V256.166H403.8V225.86599999999999Q403.8 220.466 400.95000000000005 217.51600000000002Q398.1 214.566 393.1 214.566Q388.1 214.566 385.25 217.51600000000002Q382.40000000000003 220.466 382.40000000000003 225.86599999999999V256.166H365.3V200.36599999999999H382.40000000000003V207.36599999999999Q385.0 203.86599999999999 389.20000000000005 201.81599999999997Q393.40000000000003 199.766 398.70000000000005 199.766Q405.0 199.766 409.95000000000005 202.466Q414.90000000000003 205.166 417.70000000000005 210.166Q420.6 205.566 425.6 202.666Q430.6 199.766 436.5 199.766Q446.90000000000003 199.766 453.05000000000007 206.06599999999997Q459.20000000000005 212.36599999999999 459.20000000000005 223.566Z M504.30000000000007 199.566Q511.20000000000005 199.566 516.8000000000001 203.066Q522.4000000000001 206.566 525.6500000000001 213.066Q528.9000000000001 219.566 528.9000000000001 228.166Q528.9000000000001 236.766 525.6500000000001 243.31599999999997Q522.4000000000001 249.86599999999999 516.8000000000001 253.416Q511.20000000000005 256.966 504.30000000000007 256.966Q498.50000000000006 256.966 494.05000000000007 254.566Q489.6000000000001 252.166 487.1000000000001 248.36599999999999V282.766H470.00000000000006V200.36599999999999H487.1000000000001V208.266Q489.6000000000001 204.36599999999999 494.0000000000001 201.966Q498.4000000000001 199.566 504.30000000000007 199.566ZM499.20000000000005 214.466Q494.1000000000001 214.466 490.55000000000007 218.166Q487.00000000000006 221.86599999999999 487.00000000000006 228.266Q487.00000000000006 234.666 490.55000000000007 238.36599999999999Q494.1000000000001 242.066 499.20000000000005 242.066Q504.30000000000007 242.066 507.9000000000001 238.316Q511.50000000000006 234.566 511.50000000000006 228.166Q511.50000000000006 221.766 507.95000000000005 218.11599999999999Q504.4000000000001 214.466 499.20000000000005 214.466Z"/></svg>